<svg width="136" height="56" viewBox="0 0 136 56" fill="none" xmlns="http://www.w3.org/2000/svg">
<g clip-path="url(#clip0)">
<path d="M13.1705 35.7555C11.7688 35.3811 10.9488 33.9102 11.3456 32.4928L12.959 26.4757C13.3292 25.0583 14.7839 24.2292 16.1857 24.6304C17.5875 25.0048 18.4074 26.4757 18.0107 27.893L16.3973 33.8835C16.0006 35.3009 14.5459 36.1299 13.1705 35.7555Z" fill="white"/>
<path d="M21.8986 35.7555C20.4968 35.3811 19.6769 33.9102 20.0736 32.4928L21.7134 26.4757C22.0837 25.0583 23.5384 24.2292 24.9402 24.6304C26.342 25.0048 27.1619 26.4757 26.7652 27.893L25.1253 33.8835C24.7551 35.3009 23.3004 36.1299 21.8986 35.7555Z" fill="white"/>
<path d="M40.7296 26.1017C40.756 25.9947 40.8089 25.8877 40.8354 25.7807L44.9349 10.6977C45.3846 9.01284 45.173 7.30128 44.4324 5.8839C44.0886 5.10835 43.2158 3.9584 42.052 2.83519C41.4966 2.30033 40.9412 1.81896 40.4122 1.44455C40.0683 1.17712 39.6981 0.936434 39.3013 0.722489C39.222 0.669003 39.1162 0.64226 39.0368 0.588774C38.7195 0.455058 38.4021 0.321343 38.0847 0.241114C34.567 -0.721637 30.9435 1.36432 29.9649 4.89441L26.3414 18.1857H20.9458L21.607 15.7788C22.1625 13.7731 21.7128 11.7139 20.602 10.1361C20.1524 9.46747 19.4911 8.69193 18.6977 7.91638C18.1951 7.435 17.7191 7.00711 17.243 6.65945C16.7934 6.25831 16.2644 5.93739 15.709 5.6967C15.709 5.6967 15.709 5.6967 15.6825 5.6967C15.3916 5.56298 15.0742 5.45601 14.7303 5.34904C11.2126 4.38629 7.58915 6.47225 6.61055 10.0023L4.07146 19.3357L0.606658 31.7445C-0.900927 37.2803 0.447965 42.9498 3.72762 47.1485C4.46819 48.1112 5.3939 49.1809 6.4783 50.2239C7.06018 50.7855 7.64205 51.3204 8.22393 51.8018C8.8058 52.3099 9.44057 52.7913 10.1018 53.2191C10.7366 53.647 11.3184 53.9679 11.7945 54.2086C12.7467 54.69 13.7782 55.0912 14.8361 55.3853C16.3437 55.8132 17.8778 56.0004 19.4118 56.0004C25.3099 56.0004 30.917 52.8982 34.0909 47.6031L43.2158 44.8753L37.6351 37.1733L40.7296 26.1017ZM39.8832 7.67569L35.7836 22.732C35.7836 22.7855 35.7572 22.839 35.7307 22.8658L32.2395 35.5152L36.2068 40.9976L29.9384 42.8696L29.6475 43.4044C26.4207 49.2077 19.7556 52.0424 13.4079 50.2774C5.81708 48.1647 1.32078 40.1953 3.41024 32.5467L6.90148 20.1112L9.44057 10.7779C9.91665 9.11981 11.3978 8.02335 13.0112 8.02335C13.3286 8.02335 13.6724 8.07683 13.9898 8.15706C15.947 8.69193 17.1107 10.7511 16.5818 12.7569L14.2807 21.1275L28.5631 21.1007L32.7685 5.66996C33.2974 3.69097 35.334 2.51427 37.3177 3.04914C39.2749 3.61074 40.4122 5.66996 39.8832 7.67569Z" fill="#8E7BFF"/>
<path d="M53.9033 23.8548C53.2686 23.2932 52.9512 22.5711 52.9512 21.7154C52.9512 20.8596 53.2686 20.1375 53.9033 19.5759C54.5381 19.0143 55.3845 18.7469 56.416 18.7469C57.4739 18.7469 58.3203 19.0143 58.9551 19.5492C59.5898 20.084 59.9072 20.7794 59.9072 21.6351C59.9072 22.5444 59.5898 23.2665 58.9551 23.8548C58.3203 24.4432 57.4739 24.7106 56.416 24.7106C55.3845 24.6839 54.5381 24.4164 53.9033 23.8548ZM53.533 25.8338H59.3253V40.0076H53.533V25.8338Z" fill="white"/>
<path d="M62.0759 21.8491H68.1327V35.2473H76.2261V39.9809H62.0759V21.8491Z" fill="white"/>
<path d="M93.0223 25.8338V40.0076H89.6633L87.5209 38.6705C87.0184 39.2053 86.4101 39.6065 85.7224 39.8739C85.0348 40.1413 84.3206 40.2751 83.5536 40.2751C81.7815 40.2751 80.3533 39.7402 79.2689 38.617C78.1845 37.5205 77.6555 35.8625 77.6555 33.6428V25.8338H83.4478V32.6265C83.4478 33.5893 83.6065 34.2846 83.8975 34.7125C84.2148 35.1136 84.6645 35.3276 85.2463 35.3276C85.8018 35.3276 86.2778 35.0869 86.6481 34.6323C87.0184 34.1776 87.2036 33.4556 87.2036 32.4661V25.8338H93.0223Z" fill="white"/>
<path d="M98.8663 39.3123C97.6232 38.6972 96.6182 37.8147 95.9305 36.6915C95.2164 35.5683 94.8726 34.3114 94.8726 32.894C94.8726 31.4766 95.2164 30.2197 95.9305 29.0965C96.6446 27.9733 97.6232 27.1175 98.8663 26.5024C100.109 25.8873 101.538 25.5664 103.125 25.5664C104.844 25.5664 106.298 25.9408 107.515 26.6896C108.732 27.4384 109.578 28.4546 110.028 29.765L105.531 31.9847C104.976 30.7278 104.183 30.1127 103.098 30.1127C102.41 30.1127 101.855 30.3534 101.405 30.8348C100.956 31.3161 100.718 32.0115 100.718 32.894C100.718 33.8032 100.956 34.4718 101.405 34.9799C101.855 35.4613 102.437 35.702 103.098 35.702C104.183 35.702 104.976 35.0869 105.531 33.83L110.028 36.0497C109.578 37.3601 108.732 38.4031 107.515 39.1251C106.298 39.8739 104.844 40.2483 103.125 40.2483C101.538 40.2483 100.109 39.9542 98.8663 39.3123Z" fill="white"/>
<path d="M118.068 35.6485L117.142 36.6647V40.0076H111.35V20.7794H117.142V29.9522L121.162 25.8338H122.485H128.012L122.22 31.9847L128.462 40.0076H121.453L118.068 35.6485Z" fill="white"/>
<path d="M129.997 23.8548C129.362 23.2932 129.045 22.5711 129.045 21.7154C129.045 20.8596 129.362 20.1375 129.997 19.5759C130.632 19.0143 131.478 18.7469 132.51 18.7469C133.568 18.7469 134.414 19.0143 135.049 19.5492C135.684 20.084 136.001 20.7794 136.001 21.6351C136.001 22.5444 135.684 23.2665 135.049 23.8548C134.414 24.4432 133.568 24.7106 132.51 24.7106C131.478 24.6839 130.632 24.4164 129.997 23.8548ZM129.627 25.8338H135.419V40.0076H129.627V25.8338Z" fill="white"/>
</g>
<defs>
<clipPath id="clip0">
<rect width="136" height="56" fill="white"/>
</clipPath>
</defs>
</svg>
